<svg width="65" height="65" viewBox="0 0 65 65" fill="none" xmlns="http://www.w3.org/2000/svg">
<g id="Sailboat" clip-path="url(#clip0_537_6778)">
<g id="Group">
<g id="Group_2">
<path id="Vector" d="M4.0625 48.7506H20.3125C21.06 48.7506 21.6667 48.1439 21.6667 47.3964V20.3131C21.6667 19.7037 21.2604 19.1702 20.6727 19.0077C20.0931 18.8425 19.4621 19.0943 19.1506 19.617L2.90063 46.7004C2.65146 47.1202 2.64333 47.6429 2.88438 48.0654C3.12542 48.4879 3.575 48.7506 4.0625 48.7506ZM18.9583 25.2016V46.0423H6.45396L18.9583 25.2016ZM30.0706 48.2198C30.3279 48.5529 30.7233 48.7506 31.1458 48.7506H60.9375C61.685 48.7506 62.2917 48.1439 62.289 47.3964C62.289 14.0623 31.999 0.25246 31.6929 0.117044C31.2271 -0.0887897 30.6854 -0.0210813 30.29 0.303919C29.8946 0.623502 29.7131 1.14079 29.8215 1.63913C29.8485 1.76371 32.5 14.1733 32.5 27.0839C32.5 37.0993 29.8675 46.9441 29.8404 47.0416C29.7294 47.4506 29.8133 47.8866 30.0706 48.2198ZM33.001 3.85184C39.8342 7.73288 58.9008 20.8033 59.5644 46.0423H32.8765C33.651 42.7218 35.2083 35.0573 35.2056 27.0839C35.2056 17.5723 33.7973 8.32329 33.001 3.85184ZM64.7969 52.1008C64.5504 51.7027 64.1144 51.4589 63.6458 51.4589H27.0833V1.35475C27.0833 0.607252 26.4767 0.000585309 25.7292 0.000585309H17.6042C17.0571 0.000585309 16.5615 0.331002 16.3529 0.83746C16.1417 1.34392 16.2581 1.92621 16.6454 2.3135L18.395 4.06309L16.6454 5.81267C16.2581 6.19996 16.1417 6.78225 16.3529 7.28871C16.5615 7.79517 17.0571 8.12559 17.6042 8.12559H24.375V51.4589H1.35417C0.606667 51.4589 0 52.0656 0 52.8131V55.5214C0 60.7485 4.25208 65.0006 9.47917 65.0006H48.1867C54.8979 65.0006 60.9321 61.2712 63.9302 55.2668L64.8565 53.417C65.0677 53 65.0433 52.4989 64.7969 52.1008ZM20.8731 5.41725L21.2685 5.01913C21.7967 4.491 21.7967 3.63246 21.2685 3.10434L20.8731 2.70892H24.375V5.41725H20.8731ZM48.1867 62.2923H9.47917C5.74708 62.2923 2.70833 59.2535 2.70833 55.5214V54.1673H61.4521C58.8954 59.1831 53.8254 62.2923 48.1867 62.2923Z" fill="black"/>
</g>
</g>
</g>
<defs>
<clipPath id="clip0_537_6778">
<rect width="65" height="65" fill="white"/>
</clipPath>
</defs>
</svg>
