<svg width="72" height="54" viewBox="0 0 72 54" fill="none" xmlns="http://www.w3.org/2000/svg">
<g id="Group">
<g id="Group_2">
<path id="Vector" d="M67.5 54.0001H4.5C2.019 54.0001 0 51.9811 0 49.5001V22.5001C0 18.3631 3.366 15.0001 7.5 15.0001H22.5C24.111 15.0001 25.71 14.4661 27 13.5001L34.2 8.09712C36.009 6.74412 38.247 6.00012 40.5 6.00012H64.5C68.634 6.00012 72 9.36312 72 13.5001V49.5001C72 51.9811 69.981 54.0001 67.5 54.0001ZM7.5 18.0001C5.019 18.0001 3 20.0191 3 22.5001V49.5001C3 50.3251 3.672 51.0001 4.5 51.0001H67.5C68.328 51.0001 69 50.3251 69 49.5001V13.5001C69 11.0191 66.981 9.00012 64.5 9.00012H40.5C38.889 9.00012 37.29 9.53412 36 10.5001L28.8 15.9031C26.991 17.2561 24.753 18.0001 22.5 18.0001H7.5Z" fill="black"/>
</g>
<g id="Group_3">
<path id="Vector_2" d="M4.49927 18C3.67127 18 2.99927 17.328 2.99927 16.5V7.5C2.99927 3.363 6.36527 0 10.4993 0H26.0123C28.0163 0 29.9003 0.78 31.3163 2.196L35.5583 6.438C36.1433 7.023 36.1433 7.974 35.5583 8.559C34.9733 9.144 34.0223 9.144 33.4373 8.559L29.1953 4.317C28.3463 3.468 27.2153 3 26.0123 3H10.4993C8.01827 3 5.99927 5.019 5.99927 7.5V16.5C5.99927 17.328 5.32727 18 4.49927 18Z" fill="black"/>
</g>
</g>
</svg>
