<svg width="85" height="57" viewBox="0 0 85 57" fill="none" xmlns="http://www.w3.org/2000/svg">
<g id="Group">
<g id="Group_2">
<path id="Vector" d="M75.4386 56.1404H8.77193C3.93684 56.1404 0 52.2035 0 47.3684V8.77193C0 3.93684 3.93684 0 8.77193 0H75.4386C80.2737 0 84.2105 3.93684 84.2105 8.77193V47.3684C84.2105 52.2035 80.2737 56.1404 75.4386 56.1404ZM8.77193 3.50877C5.87017 3.50877 3.50877 5.87018 3.50877 8.77193V47.3684C3.50877 50.2702 5.87017 52.6316 8.77193 52.6316H75.4386C78.3403 52.6316 80.7017 50.2702 80.7017 47.3684V8.77193C80.7017 5.87018 78.3403 3.50877 75.4386 3.50877H8.77193Z" fill="black"/>
</g>
<g id="Group_3">
<path id="Vector_2" d="M82.4561 24.5614H1.75439C0.785965 24.5614 0 23.7754 0 22.807V12.2807C0 11.3123 0.785965 10.5263 1.75439 10.5263H82.4561C83.4245 10.5263 84.2105 11.3123 84.2105 12.2807V22.807C84.2105 23.7754 83.4245 24.5614 82.4561 24.5614ZM3.50877 21.0526H80.7017V14.0351H3.50877V21.0526Z" fill="black"/>
</g>
<g id="Group_4">
<path id="Vector_3" d="M33.3331 38.5965H12.2805C11.3121 38.5965 10.5261 37.8105 10.5261 36.8421C10.5261 35.8737 11.3121 35.0877 12.2805 35.0877H33.3331C34.3016 35.0877 35.0875 35.8737 35.0875 36.8421C35.0875 37.8105 34.3016 38.5965 33.3331 38.5965Z" fill="black"/>
</g>
<g id="Group_5">
<path id="Vector_4" d="M33.3331 45.614H12.2805C11.3121 45.614 10.5261 44.8281 10.5261 43.8596C10.5261 42.8912 11.3121 42.1053 12.2805 42.1053H33.3331C34.3016 42.1053 35.0875 42.8912 35.0875 43.8596C35.0875 44.8281 34.3016 45.614 33.3331 45.614Z" fill="black"/>
</g>
<g id="Group_6">
<path id="Vector_5" d="M68.4209 45.614H64.9121C62.0103 45.614 59.6489 43.2526 59.6489 40.3508V36.842C59.6489 33.9403 62.0103 31.5789 64.9121 31.5789H68.4209C71.3226 31.5789 73.684 33.9403 73.684 36.842V40.3508C73.684 43.2526 71.3226 45.614 68.4209 45.614ZM64.9121 35.0877C63.9437 35.0877 63.1577 35.8736 63.1577 36.842V40.3508C63.1577 41.3192 63.9437 42.1052 64.9121 42.1052H68.4209C69.3893 42.1052 70.1752 41.3192 70.1752 40.3508V36.842C70.1752 35.8736 69.3893 35.0877 68.4209 35.0877H64.9121Z" fill="black"/>
</g>
</g>
</svg>
