<svg width="65" height="65" viewBox="0 0 65 65" fill="none" xmlns="http://www.w3.org/2000/svg">
<g id="Bank-2" clip-path="url(#clip0_537_6212)">
<g id="Group">
<g id="Group_2">
<path id="Vector" d="M32.4974 5.41666C29.5101 5.41666 27.0807 7.84604 27.0807 10.8333C27.0807 13.8206 29.5101 16.25 32.4974 16.25C35.4847 16.25 37.9141 13.8206 37.9141 10.8333C37.9141 7.84604 35.4847 5.41666 32.4974 5.41666ZM32.4974 13.5417C31.0051 13.5417 29.7891 12.3256 29.7891 10.8333C29.7891 9.34104 31.0051 8.12499 32.4974 8.12499C33.9897 8.12499 35.2057 9.34104 35.2057 10.8333C35.2057 12.3256 33.9897 13.5417 32.4974 13.5417ZM64.3501 19.156L33.2043 0.197703C32.771 -0.0650057 32.2266 -0.0650057 31.7959 0.197703L0.650117 19.156C0.130117 19.4729 -0.113633 20.0931 0.0488668 20.6781C0.211367 21.2631 0.744908 21.6667 1.35158 21.6667H2.70574V25.6642C2.70574 25.6669 2.70574 25.6696 2.70574 25.6723V25.7292C2.70574 25.9323 2.7572 26.1219 2.83845 26.2952C2.84387 26.3087 2.84116 26.3223 2.84658 26.3331L5.41407 31.4681V62.2917H4.05991C3.31241 62.2917 2.70574 62.8983 2.70574 63.6458C2.70574 64.3933 3.31241 65 4.05991 65H60.9349C61.6824 65 62.2891 64.3933 62.2891 63.6458C62.2891 62.8983 61.6824 62.2917 60.9349 62.2917H59.5807V31.4627L62.1455 26.3331C62.1509 26.3223 62.1482 26.3115 62.1537 26.3006C62.2376 26.1246 62.2918 25.935 62.2918 25.7292V21.6667H63.646C64.2526 21.6667 64.7916 21.2631 64.9541 20.6781C65.1166 20.0931 64.8701 19.4729 64.3501 19.156ZM32.4974 2.93854L58.8143 18.9583H6.18053L32.4974 2.93854ZM10.8307 62.2917H8.12241V32.5H10.8307V62.2917ZM11.348 29.7917H7.60512L6.25095 27.0833H12.7022L11.348 29.7917ZM18.9557 62.2917H13.5391V31.4627L15.7274 27.0833H16.762L18.9557 31.4681V62.2917ZM24.3724 62.2917H21.6641V32.5H24.3724V62.2917ZM24.8897 29.7917H21.1468L19.7926 27.0833H26.2439L24.8897 29.7917ZM37.9141 62.2917H27.0807V31.4627L29.2691 27.0833H35.7203L37.9141 31.4681V62.2917ZM43.3307 62.2917H40.6224V32.5H43.3307V62.2917ZM43.848 29.7917H40.1051L38.7509 27.0833H45.2022L43.848 29.7917ZM51.4557 62.2917H46.0391V31.4627L48.2274 27.0833H49.262L51.4557 31.4681V62.2917ZM56.8724 62.2917H54.1641V32.5H56.8724V62.2917ZM57.3897 29.7917H53.6468L52.2926 27.0833H58.7439L57.3897 29.7917ZM59.5807 24.375H5.41407V21.6667H59.5807V24.375Z" fill="black"/>
</g>
</g>
</g>
<defs>
<clipPath id="clip0_537_6212">
<rect width="65" height="65" fill="white"/>
</clipPath>
</defs>
</svg>
