<svg width="47" height="70" viewBox="0 0 47 70" fill="none" xmlns="http://www.w3.org/2000/svg">
<g id="Group">
<g id="Group_2">
<path id="Vector" d="M42.2917 70H4.375C1.96292 70 0 68.0371 0 65.625V13.125C0 10.7129 1.96292 8.75 4.375 8.75H10.2083C11.0133 8.75 11.6667 9.40333 11.6667 10.2083C11.6667 11.0133 11.0133 11.6667 10.2083 11.6667H4.375C3.57292 11.6667 2.91667 12.3229 2.91667 13.125V65.625C2.91667 66.4271 3.57292 67.0833 4.375 67.0833H42.2917C43.0937 67.0833 43.75 66.4271 43.75 65.625V13.125C43.75 12.3229 43.0937 11.6667 42.2917 11.6667H36.4583C35.6533 11.6667 35 11.0133 35 10.2083C35 9.40333 35.6533 8.75 36.4583 8.75H42.2917C44.7037 8.75 46.6667 10.7129 46.6667 13.125V65.625C46.6667 68.0371 44.7037 70 42.2917 70Z" fill="black"/>
</g>
<g id="Group_3">
<path id="Vector_2" d="M36.4583 14.5833H10.2083C9.40333 14.5833 8.75 13.93 8.75 13.125V10.2083C8.75 7.79624 10.7129 5.83332 13.125 5.83332H17.5C17.5 2.61625 20.1162 0 23.3333 0C26.5504 0 29.1666 2.61625 29.1666 5.83332H33.5416C35.9537 5.83332 37.9166 7.79624 37.9166 10.2083V13.125C37.9166 13.93 37.2633 14.5833 36.4583 14.5833ZM11.6667 11.6666H35V10.2083C35 9.40623 34.3437 8.74999 33.5416 8.74999H27.7083C26.9033 8.74999 26.25 8.09665 26.25 7.29166V5.83332C26.25 4.22333 24.9433 2.91666 23.3333 2.91666C21.7233 2.91666 20.4166 4.22333 20.4166 5.83332V7.29166C20.4166 8.09665 19.7633 8.74999 18.9583 8.74999H13.125C12.3229 8.74999 11.6667 9.40623 11.6667 10.2083V11.6666Z" fill="black"/>
</g>
<g id="Group_4">
<path id="Vector_3" d="M10.2083 37.9167C11.0137 37.9167 11.6667 37.2637 11.6667 36.4583C11.6667 35.6529 11.0137 35 10.2083 35C9.40292 35 8.75 35.6529 8.75 36.4583C8.75 37.2637 9.40292 37.9167 10.2083 37.9167Z" fill="black"/>
</g>
<g id="Group_5">
<path id="Vector_4" d="M10.2083 46.6667C11.0137 46.6667 11.6667 46.0137 11.6667 45.2083C11.6667 44.4029 11.0137 43.75 10.2083 43.75C9.40292 43.75 8.75 44.4029 8.75 45.2083C8.75 46.0137 9.40292 46.6667 10.2083 46.6667Z" fill="black"/>
</g>
<g id="Group_6">
<path id="Vector_5" d="M10.2083 55.4167C11.0137 55.4167 11.6667 54.7637 11.6667 53.9583C11.6667 53.1529 11.0137 52.5 10.2083 52.5C9.40292 52.5 8.75 53.1529 8.75 53.9583C8.75 54.7637 9.40292 55.4167 10.2083 55.4167Z" fill="black"/>
</g>
<g id="Group_7">
<path id="Vector_6" d="M36.4604 37.9167H16.0438C15.2388 37.9167 14.5854 37.2633 14.5854 36.4583C14.5854 35.6533 15.2388 35 16.0438 35H36.4604C37.2654 35 37.9188 35.6533 37.9188 36.4583C37.9188 37.2633 37.2654 37.9167 36.4604 37.9167Z" fill="black"/>
</g>
<g id="Group_8">
<path id="Vector_7" d="M10.2083 29.1667C11.0137 29.1667 11.6667 28.5137 11.6667 27.7083C11.6667 26.9029 11.0137 26.25 10.2083 26.25C9.40292 26.25 8.75 26.9029 8.75 27.7083C8.75 28.5137 9.40292 29.1667 10.2083 29.1667Z" fill="black"/>
</g>
<g id="Group_9">
<path id="Vector_8" d="M36.4604 29.1667H16.0438C15.2388 29.1667 14.5854 28.5133 14.5854 27.7083C14.5854 26.9033 15.2388 26.25 16.0438 26.25H36.4604C37.2654 26.25 37.9188 26.9033 37.9188 27.7083C37.9188 28.5133 37.2654 29.1667 36.4604 29.1667Z" fill="black"/>
</g>
<g id="Group_10">
<path id="Vector_9" d="M36.4604 46.6667H16.0438C15.2388 46.6667 14.5854 46.0133 14.5854 45.2083C14.5854 44.4033 15.2388 43.75 16.0438 43.75H36.4604C37.2654 43.75 37.9188 44.4033 37.9188 45.2083C37.9188 46.0133 37.2654 46.6667 36.4604 46.6667Z" fill="black"/>
</g>
<g id="Group_11">
<path id="Vector_10" d="M36.4604 55.4167H16.0438C15.2388 55.4167 14.5854 54.7633 14.5854 53.9583C14.5854 53.1533 15.2388 52.5 16.0438 52.5H36.4604C37.2654 52.5 37.9188 53.1533 37.9188 53.9583C37.9188 54.7633 37.2654 55.4167 36.4604 55.4167Z" fill="black"/>
</g>
</g>
</svg>
